<svg width="20" height="20" viewBox="0 0 20 20" fill="none" xmlns="http://www.w3.org/2000/svg">
<path d="M8.45702 0.780399C8.63691 0.547506 8.86005 0.357889 9.11203 0.223778C9.36401 0.0896676 9.63924 0.0140409 9.91997 0.00177594C10.2007 -0.010489 10.4807 0.0408802 10.7419 0.15257C11.0031 0.264261 11.2397 0.433792 11.4365 0.650229L11.545 0.780399L15.4985 5.89823H18.4991C18.71 5.89775 18.9187 5.94536 19.1114 6.03794C19.3041 6.13053 19.4765 6.266 19.6174 6.43548C19.7582 6.60497 19.8643 6.80465 19.9286 7.02144C19.993 7.23823 20.0141 7.46725 19.9908 7.69349L19.8983 8.5244L19.7978 9.32712L19.7154 9.92807L19.6199 10.5735L19.5113 11.2515L19.3887 11.9544L19.252 12.6714C19.1796 13.033 19.1018 13.3942 19.0188 13.7551C18.7962 14.7075 18.5169 15.6434 18.1824 16.557L17.9603 17.1427L17.7452 17.6721L17.5421 18.1429L17.4476 18.3533L17.1973 18.8848C16.8756 19.5465 16.2685 19.937 15.6262 19.9934L15.4653 19.9999H4.52765C4.17623 20.0028 3.8307 19.9026 3.52795 19.71C3.22521 19.5174 2.97662 19.2397 2.80875 18.9065L2.57554 18.4184L2.3946 18.017L2.29911 17.7946L2.09806 17.3076C1.63898 16.1573 1.26652 14.9689 0.984292 13.754C0.92972 13.5181 0.877447 13.2816 0.827479 13.0445L0.68474 12.3416L0.557078 11.6539L0.444495 10.9889L0.343974 10.3522L0.256521 9.75125L0.182135 9.19478L0.0916662 8.4539L0.0253224 7.85078L0.00823386 7.68481C-0.0125594 7.4717 0.0061256 7.25625 0.0632019 7.05101C0.120278 6.84576 0.214606 6.65481 0.340699 6.48927C0.466791 6.32372 0.62213 6.18689 0.797679 6.08673C0.973228 5.98656 1.16548 5.92507 1.36326 5.90583L1.49996 5.89823H4.50453L8.45702 0.780399ZM17.9251 8.06773H2.07293L2.13526 8.59274L2.21165 9.18719L2.30413 9.84237L2.41269 10.5453C2.4529 10.7861 2.49512 11.0327 2.53935 11.2851L2.6831 12.052C2.75949 12.4403 2.84393 12.8352 2.9344 13.2279C3.1895 14.3243 3.52565 15.397 3.93961 16.4355L4.13663 16.9138L4.31958 17.3304L4.48343 17.6808L4.5558 17.8304H15.4392L15.594 17.5018L15.7719 17.1058L15.9669 16.647C16.3358 15.7521 16.758 14.5664 17.0676 13.2279C17.1933 12.6855 17.3049 12.1344 17.4044 11.5932L17.5451 10.7926L17.6657 10.0235L17.719 9.6558L17.8145 8.96481L17.8919 8.34651L17.9251 8.06773ZM7.97653 11.1441L8.47913 14.3983C8.51423 14.6778 8.44707 14.961 8.29191 15.188C8.13674 15.4149 7.90577 15.5677 7.64795 15.614C7.39014 15.6603 7.12577 15.5964 6.91088 15.4359C6.69599 15.2753 6.54749 15.0308 6.49686 14.7541L5.99425 11.4999C5.96819 11.3574 5.96889 11.2108 5.99632 11.0686C6.02374 10.9265 6.07734 10.7917 6.15393 10.6723C6.23051 10.5529 6.32853 10.4513 6.44217 10.3736C6.55581 10.2958 6.68276 10.2435 6.81549 10.2197C6.94822 10.1959 7.08404 10.201 7.21488 10.2349C7.34573 10.2688 7.46894 10.3306 7.57721 10.4168C7.68549 10.503 7.77662 10.6118 7.84521 10.7368C7.91381 10.8617 7.95846 11.0002 7.97653 11.1441ZM13.0649 10.2372L13.1815 10.2513C13.4248 10.2947 13.6449 10.433 13.7998 10.64C13.9547 10.847 14.0338 11.1082 14.0219 11.374L14.0088 11.4999L13.5062 14.7541C13.4635 15.0265 13.3262 15.2711 13.1222 15.438C12.9182 15.6048 12.6628 15.6814 12.4083 15.6521C12.1537 15.6227 11.9191 15.4897 11.7524 15.2801C11.5856 15.0705 11.4992 14.8001 11.5108 14.5241L11.5239 14.3983L12.0265 11.1441C12.0666 10.8819 12.1945 10.6447 12.3859 10.4776C12.5773 10.3104 12.8189 10.2249 13.0649 10.2372ZM10.001 2.16887L7.12109 5.89823H12.8809L10.001 2.16887Z" fill="white"/>
</svg>
